<mxfile host="app.diagrams.net" modified="2022-07-15T03:17:01.806Z" agent="5.0 (Macintosh; Intel Mac OS X 10_15_7) AppleWebKit/605.1.15 (KHTML, like Gecko) Version/15.5 Safari/605.1.15" etag="RUb0sYGmAewl2CCsdPBG" version="20.1.1" type="github">
  <diagram id="L-BaZsgv-t_ZaQZCVjST" name="Page-1">
    <mxGraphModel dx="1773" dy="645" grid="1" gridSize="10" guides="1" tooltips="1" connect="1" arrows="1" fold="1" page="1" pageScale="1" pageWidth="827" pageHeight="1169" math="0" shadow="0">
      <root>
        <mxCell id="0" />
        <mxCell id="1" parent="0" />
        <mxCell id="RASX5d_kIR16KXBsTgWf-27" value="" style="shape=curlyBracket;whiteSpace=wrap;html=1;rounded=1;flipH=1;sketch=1;fontFamily=Comic Sans MS;rotation=-90;" vertex="1" parent="1">
          <mxGeometry x="-180.71" y="-143.95999999999998" width="61.18" height="648.25" as="geometry" />
        </mxCell>
        <mxCell id="RASX5d_kIR16KXBsTgWf-2" value="" style="endArrow=none;html=1;rounded=0;startArrow=none;sketch=1;curved=1;" edge="1" parent="1" source="RASX5d_kIR16KXBsTgWf-20">
          <mxGeometry width="50" height="50" relative="1" as="geometry">
            <mxPoint x="-700" y="320" as="sourcePoint" />
            <mxPoint x="90" y="320" as="targetPoint" />
          </mxGeometry>
        </mxCell>
        <mxCell id="RASX5d_kIR16KXBsTgWf-1" value="15" style="ellipse;whiteSpace=wrap;html=1;aspect=fixed;sketch=1;fontFamily=Comic Sans MS;" vertex="1" parent="1">
          <mxGeometry x="-650" y="300" width="40" height="40" as="geometry" />
        </mxCell>
        <mxCell id="RASX5d_kIR16KXBsTgWf-3" value="" style="endArrow=none;html=1;rounded=0;sketch=1;curved=1;" edge="1" parent="1" target="RASX5d_kIR16KXBsTgWf-1">
          <mxGeometry width="50" height="50" relative="1" as="geometry">
            <mxPoint x="-700" y="320" as="sourcePoint" />
            <mxPoint x="-210" y="320" as="targetPoint" />
          </mxGeometry>
        </mxCell>
        <mxCell id="RASX5d_kIR16KXBsTgWf-4" value="19" style="ellipse;whiteSpace=wrap;html=1;aspect=fixed;sketch=1;fontFamily=Comic Sans MS;" vertex="1" parent="1">
          <mxGeometry x="-530" y="300" width="40" height="40" as="geometry" />
        </mxCell>
        <mxCell id="RASX5d_kIR16KXBsTgWf-5" value="" style="endArrow=none;html=1;rounded=0;startArrow=none;sketch=1;curved=1;" edge="1" parent="1" source="RASX5d_kIR16KXBsTgWf-1" target="RASX5d_kIR16KXBsTgWf-4">
          <mxGeometry width="50" height="50" relative="1" as="geometry">
            <mxPoint x="-610" y="320" as="sourcePoint" />
            <mxPoint x="-210" y="320" as="targetPoint" />
          </mxGeometry>
        </mxCell>
        <mxCell id="RASX5d_kIR16KXBsTgWf-6" value="20" style="ellipse;whiteSpace=wrap;html=1;aspect=fixed;sketch=1;fontFamily=Comic Sans MS;" vertex="1" parent="1">
          <mxGeometry x="-490" y="300" width="40" height="40" as="geometry" />
        </mxCell>
        <mxCell id="RASX5d_kIR16KXBsTgWf-7" value="" style="endArrow=none;html=1;rounded=0;startArrow=none;sketch=1;curved=1;" edge="1" parent="1" source="RASX5d_kIR16KXBsTgWf-4" target="RASX5d_kIR16KXBsTgWf-6">
          <mxGeometry width="50" height="50" relative="1" as="geometry">
            <mxPoint x="-520" y="320" as="sourcePoint" />
            <mxPoint x="-210" y="320" as="targetPoint" />
          </mxGeometry>
        </mxCell>
        <mxCell id="RASX5d_kIR16KXBsTgWf-8" value="25" style="ellipse;whiteSpace=wrap;html=1;aspect=fixed;sketch=1;fontFamily=Comic Sans MS;" vertex="1" parent="1">
          <mxGeometry x="-380" y="300" width="40" height="40" as="geometry" />
        </mxCell>
        <mxCell id="RASX5d_kIR16KXBsTgWf-9" value="" style="endArrow=none;html=1;rounded=0;startArrow=none;sketch=1;curved=1;" edge="1" parent="1" source="RASX5d_kIR16KXBsTgWf-6" target="RASX5d_kIR16KXBsTgWf-8">
          <mxGeometry width="50" height="50" relative="1" as="geometry">
            <mxPoint x="-430" y="320" as="sourcePoint" />
            <mxPoint x="-210" y="320" as="targetPoint" />
          </mxGeometry>
        </mxCell>
        <mxCell id="RASX5d_kIR16KXBsTgWf-10" value="39" style="ellipse;whiteSpace=wrap;html=1;aspect=fixed;sketch=1;fontFamily=Comic Sans MS;" vertex="1" parent="1">
          <mxGeometry x="-290" y="300" width="40" height="40" as="geometry" />
        </mxCell>
        <mxCell id="RASX5d_kIR16KXBsTgWf-11" value="" style="endArrow=none;html=1;rounded=0;startArrow=none;sketch=1;curved=1;" edge="1" parent="1" source="RASX5d_kIR16KXBsTgWf-8" target="RASX5d_kIR16KXBsTgWf-10">
          <mxGeometry width="50" height="50" relative="1" as="geometry">
            <mxPoint x="-340" y="320" as="sourcePoint" />
            <mxPoint x="-210" y="320" as="targetPoint" />
          </mxGeometry>
        </mxCell>
        <mxCell id="RASX5d_kIR16KXBsTgWf-12" value="40" style="ellipse;whiteSpace=wrap;html=1;aspect=fixed;sketch=1;fontFamily=Comic Sans MS;" vertex="1" parent="1">
          <mxGeometry x="-250" y="300" width="40" height="40" as="geometry" />
        </mxCell>
        <mxCell id="RASX5d_kIR16KXBsTgWf-13" value="" style="endArrow=none;html=1;rounded=0;startArrow=none;sketch=1;curved=1;" edge="1" parent="1" source="RASX5d_kIR16KXBsTgWf-10" target="RASX5d_kIR16KXBsTgWf-12">
          <mxGeometry width="50" height="50" relative="1" as="geometry">
            <mxPoint x="-250" y="320" as="sourcePoint" />
            <mxPoint x="-40" y="320" as="targetPoint" />
          </mxGeometry>
        </mxCell>
        <mxCell id="RASX5d_kIR16KXBsTgWf-14" value="54" style="ellipse;whiteSpace=wrap;html=1;aspect=fixed;sketch=1;fontFamily=Comic Sans MS;" vertex="1" parent="1">
          <mxGeometry x="-160" y="300" width="40" height="40" as="geometry" />
        </mxCell>
        <mxCell id="RASX5d_kIR16KXBsTgWf-15" value="" style="endArrow=none;html=1;rounded=0;startArrow=none;sketch=1;curved=1;" edge="1" parent="1" source="RASX5d_kIR16KXBsTgWf-12" target="RASX5d_kIR16KXBsTgWf-14">
          <mxGeometry width="50" height="50" relative="1" as="geometry">
            <mxPoint x="-160" y="320" as="sourcePoint" />
            <mxPoint x="-40" y="320" as="targetPoint" />
          </mxGeometry>
        </mxCell>
        <mxCell id="RASX5d_kIR16KXBsTgWf-16" value="60" style="ellipse;whiteSpace=wrap;html=1;aspect=fixed;sketch=1;fontFamily=Comic Sans MS;" vertex="1" parent="1">
          <mxGeometry x="-70" y="300" width="40" height="40" as="geometry" />
        </mxCell>
        <mxCell id="RASX5d_kIR16KXBsTgWf-17" value="" style="endArrow=none;html=1;rounded=0;startArrow=none;sketch=1;curved=1;" edge="1" parent="1" source="RASX5d_kIR16KXBsTgWf-14" target="RASX5d_kIR16KXBsTgWf-16">
          <mxGeometry width="50" height="50" relative="1" as="geometry">
            <mxPoint x="-120" y="320" as="sourcePoint" />
            <mxPoint x="90" y="320" as="targetPoint" />
          </mxGeometry>
        </mxCell>
        <mxCell id="RASX5d_kIR16KXBsTgWf-19" value="" style="endArrow=none;html=1;rounded=0;startArrow=none;sketch=1;curved=1;" edge="1" parent="1" source="RASX5d_kIR16KXBsTgWf-16">
          <mxGeometry width="50" height="50" relative="1" as="geometry">
            <mxPoint x="-30" y="320" as="sourcePoint" />
            <mxPoint x="250" y="320" as="targetPoint" />
          </mxGeometry>
        </mxCell>
        <mxCell id="RASX5d_kIR16KXBsTgWf-20" value="83" style="ellipse;whiteSpace=wrap;html=1;aspect=fixed;sketch=1;fontFamily=Comic Sans MS;" vertex="1" parent="1">
          <mxGeometry x="50" y="300" width="40" height="40" as="geometry" />
        </mxCell>
        <mxCell id="RASX5d_kIR16KXBsTgWf-21" value="" style="endArrow=none;html=1;rounded=0;startArrow=none;sketch=1;curved=1;" edge="1" parent="1" source="RASX5d_kIR16KXBsTgWf-18" target="RASX5d_kIR16KXBsTgWf-20">
          <mxGeometry width="50" height="50" relative="1" as="geometry">
            <mxPoint x="50" y="320" as="sourcePoint" />
            <mxPoint x="90" y="320" as="targetPoint" />
          </mxGeometry>
        </mxCell>
        <mxCell id="RASX5d_kIR16KXBsTgWf-22" value="100" style="ellipse;whiteSpace=wrap;html=1;aspect=fixed;sketch=1;fontFamily=Comic Sans MS;" vertex="1" parent="1">
          <mxGeometry x="150" y="300" width="40" height="40" as="geometry" />
        </mxCell>
        <mxCell id="RASX5d_kIR16KXBsTgWf-18" value="79" style="ellipse;whiteSpace=wrap;html=1;aspect=fixed;sketch=1;fontFamily=Comic Sans MS;" vertex="1" parent="1">
          <mxGeometry x="10" y="300" width="40" height="40" as="geometry" />
        </mxCell>
        <mxCell id="RASX5d_kIR16KXBsTgWf-23" value="Doodly" style="rounded=0;whiteSpace=wrap;html=1;sketch=1;fontFamily=Comic Sans MS;" vertex="1" parent="1">
          <mxGeometry x="-410" y="400" width="120" height="30" as="geometry" />
        </mxCell>
        <mxCell id="RASX5d_kIR16KXBsTgWf-24" value="" style="shape=curlyBracket;whiteSpace=wrap;html=1;rounded=1;flipH=1;sketch=1;fontFamily=Comic Sans MS;rotation=90;" vertex="1" parent="1">
          <mxGeometry x="-373.62" y="250.13" width="40.25" height="240" as="geometry" />
        </mxCell>
        <mxCell id="RASX5d_kIR16KXBsTgWf-25" value="" style="shape=curlyBracket;whiteSpace=wrap;html=1;rounded=1;flipH=1;sketch=1;fontFamily=Comic Sans MS;rotation=-90;" vertex="1" parent="1">
          <mxGeometry x="-158.5" y="45" width="23.5" height="440" as="geometry" />
        </mxCell>
        <mxCell id="RASX5d_kIR16KXBsTgWf-26" value="Vyond" style="rounded=0;whiteSpace=wrap;html=1;sketch=1;fontFamily=Comic Sans MS;" vertex="1" parent="1">
          <mxGeometry x="-206.75" y="210" width="120" height="30" as="geometry" />
        </mxCell>
        <mxCell id="RASX5d_kIR16KXBsTgWf-28" value="Vedioscribe" style="rounded=0;whiteSpace=wrap;html=1;sketch=1;fontFamily=Comic Sans MS;" vertex="1" parent="1">
          <mxGeometry x="-680" y="400" width="120" height="30" as="geometry" />
        </mxCell>
        <mxCell id="RASX5d_kIR16KXBsTgWf-29" value="" style="shape=curlyBracket;whiteSpace=wrap;html=1;rounded=1;flipH=1;sketch=1;fontFamily=Comic Sans MS;rotation=90;" vertex="1" parent="1">
          <mxGeometry x="-256.43" y="185" width="40.25" height="535" as="geometry" />
        </mxCell>
        <mxCell id="RASX5d_kIR16KXBsTgWf-30" value="Wedio" style="rounded=0;whiteSpace=wrap;html=1;sketch=1;fontFamily=Comic Sans MS;" vertex="1" parent="1">
          <mxGeometry x="-300" y="485" width="120" height="30" as="geometry" />
        </mxCell>
        <mxCell id="RASX5d_kIR16KXBsTgWf-31" value="Powtoon" style="rounded=0;whiteSpace=wrap;html=1;sketch=1;fontFamily=Comic Sans MS;" vertex="1" parent="1">
          <mxGeometry x="-210" y="110" width="120" height="30" as="geometry" />
        </mxCell>
        <mxCell id="RASX5d_kIR16KXBsTgWf-32" value="" style="line;strokeWidth=1;direction=south;html=1;perimeter=backbonePerimeter;points=[];outlineConnect=0;sketch=1;fontFamily=Comic Sans MS;" vertex="1" parent="1">
          <mxGeometry x="-635" y="355" width="10" height="35" as="geometry" />
        </mxCell>
      </root>
    </mxGraphModel>
  </diagram>
</mxfile>
